<svg aria-hidden="true" version="1.1" xmlns="http://www.w3.org/2000/svg" xmlns:xlink="http://www.w3.org/1999/xlink">
  <defs>
    <symbol id="icon-logo" viewBox="0 0 108 32">
      <path fill="#fff" style="fill: var(--color1, #fff)" d="M0 0h47.744l12.564 16-12.564 16h-47.744v-32z"></path>
      <path fill="#010101" style="fill: var(--color2, #010101)"
        d="M21.31 14.187c0.073 0.060 0.147 0.12 0.221 0.181 0.049-0.030 0.080-0.072 0.109-0.111 0.007-0.009 0.013-0.018 0.020-0.027 0.261-0.314 0.521-0.629 0.78-0.945l0-0c0.521-0.63 1.040-1.259 1.559-1.89 0.104-0.126 0.1-0.184-0.019-0.287-0.093-0.082-0.188-0.162-0.285-0.242-0.824-0.682-1.73-1.215-2.756-1.523-0.685-0.205-1.386-0.317-2.098-0.367-0.929-0.063-1.85-0.032-2.763 0.181-3.196 0.744-5.58 3.419-5.86 6.847-0.075 0.925-0.003 1.841 0.231 2.74 0.533 2.035 1.689 3.594 3.526 4.621 1.001 0.559 2.085 0.855 3.224 0.947 0.965 0.079 1.92 0.019 2.863-0.196 1.594-0.363 3.004-1.097 4.257-2.146 0.1-0.084 0.141-0.167 0.141-0.3-0.004-1.632-0.004-3.265-0.004-4.898 0-0.408 0-0.816 0-1.224 0-0.021-0.001-0.043-0.003-0.064-0.003-0.048-0.006-0.095 0.006-0.139 0.015-0.050-0.012-0.079-0.038-0.108-0.022-0.023-0.043-0.046-0.040-0.080 0.007-0.056-0.031-0.065-0.075-0.065h-6.732c-0.013 0-0.026 0-0.039 0.001-0.026 0.001-0.053 0.002-0.079-0.001-0.068-0.007-0.090 0.027-0.085 0.090 0.002 0.026 0.001 0.053 0.001 0.080-0 0.013-0.001 0.026-0.001 0.040 0 0.358-0 0.716-0 1.075-0 0.716-0.001 1.433 0 2.149 0 0.119-0.009 0.171 0.013 0.194s0.073 0.016 0.192 0.016h2.663c0.117 0 0.168-0.006 0.189 0.016s0.013 0.075 0.014 0.196c0.001 0.156 0.001 0.311 0 0.466-0 0.078-0 0.156-0 0.233v0.006c0 0.32 0 0.323-0.287 0.462-0.84 0.406-1.727 0.522-2.643 0.406-1.018-0.128-1.832-0.614-2.429-1.455-0.388-0.548-0.6-1.165-0.68-1.83-0.1-0.85 0.002-1.667 0.383-2.438 0.46-0.926 1.155-1.592 2.154-1.897 0.701-0.215 1.409-0.159 2.112-0.003 0.636 0.14 1.191 0.454 1.701 0.848 0.187 0.143 0.369 0.292 0.554 0.444zM40.15 11.093c-1.569-1.443-3.438-2.131-5.37-2.146-0.892 0.002-1.559 0.075-2.266 0.261-2.052 0.541-3.659 1.701-4.726 3.553-1.096 1.9-1.318 3.939-0.706 6.035 0.685 2.344 2.146 4.050 4.405 5 1.735 0.729 3.533 0.826 5.346 0.345 2.107-0.558 3.721-1.791 4.78-3.715 0.892-1.622 1.131-3.362 0.799-5.179-0.298-1.633-1.045-3.031-2.263-4.154zM31.486 14.757c0.684-1.274 1.776-1.885 2.836-1.909 2.151-0.005 3.557 1.218 3.94 2.914 0.232 1.022 0.129 2.015-0.368 2.943-0.585 1.090-1.498 1.725-2.726 1.866-1.187 0.138-2.224-0.201-3.070-1.064-0.543-0.553-0.87-1.227-1.009-1.987-0.176-0.964-0.068-1.897 0.397-2.762z">
      </path>
      <path fill="#fff" style="fill: var(--color1, #fff)" d="M60.308 0h48v32h-48v-32z"></path>
      <path fill="#010101" style="fill: var(--color2, #010101)"
        d="M90.508 8.949c2.007 0 4.013 0 6.021 0 0.232 0 0.207-0.027 0.207 0.21 0 1.131 0 2.262 0 3.395 0 0.017 0 0.034 0 0.051-0.002 0.165-0.002 0.165-0.168 0.165-1.284 0-2.566 0-3.85 0-0.229 0-0.202-0.019-0.202 0.198 0 3.559 0 7.119 0 10.677 0 0.222 0 0.222-0.226 0.222-1.192 0-2.385 0-3.579 0-0.017 0-0.034 0-0.051 0-0.205 0-0.182 0.014-0.182-0.183 0-3.559 0-7.119 0-10.677 0-0.239 0-0.239-0.244-0.239-1.26 0-2.52 0-3.783 0-0.198 0-0.185 0.019-0.185-0.181 0-1.155 0-2.308 0-3.463 0-0.029 0.002-0.056 0-0.085-0.005-0.063 0.019-0.096 0.087-0.092 0.046 0.002 0.090 0 0.136 0 2.005 0.002 4.011 0.002 6.018 0.002z">
      </path>
      <path fill="#010101" style="fill: var(--color2, #010101)"
        d="M76.423 16.398c0-2.415 0-4.833 0-7.248 0-0.229-0.027-0.201 0.195-0.201 1.215-0.002 2.431 0 3.645 0 0.029 0 0.058 0.003 0.085 0 0.092-0.010 0.121 0.034 0.112 0.119-0.003 0.034 0 0.068 0 0.102 0 4.826 0 9.654 0 14.48 0 0.246 0.036 0.218-0.214 0.218-1.204 0.002-2.409 0-3.611 0-0.034 0-0.068-0.003-0.102 0-0.095 0.014-0.117-0.036-0.11-0.119 0.003-0.044 0-0.090 0-0.137 0-2.405 0-4.811 0-7.214z">
      </path>
    </symbol>
  </defs>
</svg>
